# xmcd
#
# Track frame offsets:
#	150
#	16853
#	31726
#	50047
#	66582
#	77182
#	94584
#	106048
#	122554
#	137356
#	152489
#	168535
#	181762
#	194013
#	210170
#	229633
#	245650
#
# Disc length: 3513 seconds
#
# Revision: 7
# Processed by: cddbd v1.5.2PL0 Copyright (c) Steve Scherf et al.
# Submitted via: EasyCDDAExtractor 12.0.0.1
#
DISCID=d50db711
DTITLE=Various Artist - Ultimate Cheese Party CD1
DYEAR=2003
DGENRE=Pop
TTITLE0=Village People - YMCA
TTITLE1=Kylie Minogue - I Should Be So Lucky
TTITLE2=Damian - The Time Warp
TTITLE3=Whigfield - Saturday Night
TTITLE4=Chas and Dave - Rabbit
TTITLE5=Deee-Lite - Groove Is In The Heart
TTITLE6=The Tweets - Birdie Song
TTITLE7=Toni Basil - Mickey
TTITLE8=Rednex - Cotton Eye Joe
TTITLE9=Gina G - Just A Little Bit
TTITLE10=House Of Pain - Jump Around
TTITLE11=Lulu - Shout
TTITLE12=The Monkees - I'm A Believer
TTITLE13=Bananarama - Venus
TTITLE14=Jive Bunny - Swing The Mood
TTITLE15=Fast Food Rockers - Say Cheese! (Smile Please)
TTITLE16=D:Ream - Things Can Only Get Better
EXTD=YEAR: 2003
EXTT0=
EXTT1=
EXTT2=
EXTT3=
EXTT4=
EXTT5=
EXTT6=
EXTT7=
EXTT8=
EXTT9=
EXTT10=
EXTT11=
EXTT12=
EXTT13=
EXTT14=
EXTT15=
EXTT16=
PLAYORDER=
